<?xml version="1.0"?>
<svg xmlns="http://www.w3.org/2000/svg" viewBox="0 0 512 512" width="512" height="512"><g id="outline"><path d="M495.761,94.06l-5.349-21.4A21.968,21.968,0,0,0,469.069,56H461.45a25.916,25.916,0,0,0-14.422,4.367L429.578,72H421.56a40.735,40.735,0,0,0-39.52,30.856l-2.594,10.375a20.751,20.751,0,0,1-17.2,15.509L314.925,135.5a24.045,24.045,0,0,0-11,4.559L279.467,158.4a8.043,8.043,0,0,1-4.8,1.6H252.325a24.022,24.022,0,0,0-12.093,3.27l-56.213,32.791a168.857,168.857,0,0,1-74.171,22.558l-86.347,5.4a8,8,0,0,0-1.7,15.676l40.077,11.451a184.414,184.414,0,0,0,33.89,6.323l41.812,3.8a183.5,183.5,0,0,0,61.2-4.716l-11.859,23.717a16.031,16.031,0,0,0,1,16.032l5.133,7.7H120a8,8,0,0,0-8,8v48a8,8,0,0,0,8,8h8v88a8,8,0,0,0,8,8H376a8,8,0,0,0,8-8V368h8a8,8,0,0,0,8-8V312a8,8,0,0,0-8-8H352v-8a8,8,0,0,0-4.422-7.155l-14.839-7.42-2.445-2.445,9.675-14.51A23.938,23.938,0,0,0,344,251.155V228.643l20.331-11.618L392,222.559V232a8,8,0,0,0,16,0v-8a8.009,8.009,0,0,1,8,8,8,8,0,0,0,16,0,24.028,24.028,0,0,0-24-24h-7.207l-15.31-3.062,2.424-1.385A24.054,24.054,0,0,0,400,182.715v-3.4l17.927-17.926,25.306,10.123a23.974,23.974,0,0,0,25.884-5.313l8.54-8.54a8,8,0,0,0,0-11.314L456,124.687v-7.271l34.971-13.988A8,8,0,0,0,495.761,94.06ZM368,448H144V368H368Zm16-96H128V320H384ZM233.231,287.425l4.279-8.556,19.909-4.977A23.887,23.887,0,0,0,274.367,258.2l3.4-10.2H288v5.578l-11.019,16.527a16.046,16.046,0,0,0,2,20.19L292.686,304h-48.4ZM336,300.944V304H315.313l-25.019-25.02,12.362-18.542A8,8,0,0,0,304,256v-8.353a61.991,61.991,0,0,0,24-7.636v11.144a7.98,7.98,0,0,1-1.344,4.439l-13.312,19.968a8,8,0,0,0,1,10.095l8,8a7.986,7.986,0,0,0,2.079,1.5ZM445.029,104.572A8,8,0,0,0,440,112v16a8,8,0,0,0,2.343,5.657L460.687,152l-2.884,2.883a7.988,7.988,0,0,1-8.627,1.771l-30.2-12.082a8,8,0,0,0-8.629,1.771l-24,24A8,8,0,0,0,384,176v6.715a8.016,8.016,0,0,1-4.03,6.945L368,196.5V184a8,8,0,0,0-16,0v21.643l-19.969,11.411a8.034,8.034,0,0,0-1.688,1.289h0A46.326,46.326,0,0,1,297.373,232h-6.349A23.816,23.816,0,0,0,296,217.373V200a8,8,0,0,0-16,0v17.373a7.94,7.94,0,0,1-2.344,5.656l-11.313,11.314a7.96,7.96,0,0,0-.695.806c-.049.064-.1.13-.145.2a8,8,0,0,0-1.051,2.025c-.012.035-.03.065-.042.1l-5.222,15.669a7.963,7.963,0,0,1-5.649,5.23l-23.479,5.87a8,8,0,0,0-5.215,4.183l-8,16a8,8,0,0,0,.5,8.016L225.052,304H212.281l-11.05-16.574,12.974-25.948,22.233-14.822A7.994,7.994,0,0,0,240,240.068c0-.025,0-.042,0-.068V222.627a7.94,7.94,0,0,1,2.344-5.656l11.313-11.314a8,8,0,0,0-11.314-11.314l-11.314,11.313A23.845,23.845,0,0,0,224,222.627v11.127l-29.014,7.254a167.708,167.708,0,0,1-55.956,4.326l-41.813-3.8a168.541,168.541,0,0,1-26.076-4.463l39.705-2.481a184.907,184.907,0,0,0,81.235-24.707L248.3,177.09a8,8,0,0,1,4.03-1.09h22.342a24.151,24.151,0,0,0,14.4-4.8l24.456-18.341a8.013,8.013,0,0,1,3.666-1.519l47.327-6.761a36.756,36.756,0,0,0,30.453-27.467l2.594-10.375A24.737,24.737,0,0,1,421.56,88H432a8.005,8.005,0,0,0,4.438-1.344l19.467-12.977A9.956,9.956,0,0,1,461.45,72h7.619a5.994,5.994,0,0,1,5.822,4.545l3.654,14.621Z"/><rect x="408" y="96" width="16" height="16"/><path d="M216,432h80a8,8,0,0,0,8-8V392a8,8,0,0,0-8-8H216a8,8,0,0,0-8,8v32A8,8,0,0,0,216,432Zm8-32h64v16H224Z"/></g></svg>
